<?xml version="1.0" encoding="utf-8"?>
<!-- Generator: Adobe Illustrator 24.3.0, SVG Export Plug-In . SVG Version: 6.00 Build 0)  -->
<svg version="1.1" id="Layer_1" xmlns="http://www.w3.org/2000/svg" xmlns:xlink="http://www.w3.org/1999/xlink" x="0px" y="0px"
	 viewBox="0 0 500 500" style="enable-background:new 0 0 500 500;" xml:space="preserve">
<style type="text/css">
	.st0{fill:#7CB7E3;}
	.st1{fill:#9CCC5A;}
</style>
<g id="Main">
	<polygon class="st0" points="250,196.44 250,303.56 210.69,371.67 70.21,371.67 0,250 70.21,128.33 210.69,128.33 235.82,171.85 
		205.38,226.34 179.76,181.93 101.18,181.93 61.87,250 101.18,318.07 179.76,318.07 219.07,250 	"/>
	<polygon class="st1" points="500,250 429.76,371.67 289.31,371.67 262.76,325.69 293.98,272.59 320.24,318.07 398.82,318.07 
		438.13,250 398.82,181.93 320.24,181.93 280.93,250 250,303.56 250,196.44 289.31,128.33 429.76,128.33 	"/>
</g>
</svg>
